<?xml version="1.0" encoding="UTF-8"?>
<svg id="Layer_2" data-name="Layer 2" xmlns="http://www.w3.org/2000/svg" viewBox="0 0 151.38 74.46">
  <defs>
    <style>
      .cls-1 {
        fill: #231f20;
        stroke-width: 0px;
      }
    </style>
  </defs>
  <g id="Layer_1-2" data-name="Layer 1">
    <g>
      <path class="cls-1" d="M40.61,49.97l-.69.12c-1.05,1.04-3.42,3-7.1,5.86-3.68,2.87-5.63,4.39-5.83,4.57-2.52,1.88-6.46,3.29-11.82,4.24-4.85.86-8.82.21-11.92-1.96-1.69-1.22-2.73-2.9-3.1-5.02-.57-3.23.55-6,3.38-8.31,2.32-1.93,5.25-3.57,8.77-4.91,2.18-.86,3.97-1.51,5.37-1.95l1.25-.22c3.28-.58,7.88-.25,13.81.98.05,0,.27.06.68.2.41.14.81.27,1.21.39.4.12.85.23,1.34.33.96.31,1.72.59,2.29.84.57.26.86.41.87.45.77.29,1.24.42,1.43.39,2.81-5.35,4.37-9.3,4.69-11.83-.32.1-.92.23-1.82.39s-2.64.2-5.23.11c-2.59-.09-5.42-.42-8.5-.99-3.08-.57-5.82-1.63-8.24-3.18-2.42-1.55-3.82-3.4-4.2-5.58-.16-.88.11-1.38.81-1.5l.76.65c.46.44,1.04.99,1.76,1.65.71.66,1.49,1.34,2.33,2.05,1.97,1.7,3.33,2.65,4.08,2.85,5.77,1.93,11.26,2.43,16.48,1.51,1.57-.28,2.61-.72,3.12-1.34l14.03-19.98c.48-.75,1.31-1.49,2.46-2.22,1.58-.99,3-1.6,4.25-1.82,3-.53,4.76.4,5.28,2.78.4,2.26.25,4.42-.46,6.47s-1.68,3.8-2.93,5.23-2.91,2.86-4.99,4.28c-2.93,2-6.62,4.03-11.06,6.1-.71.32-1.21.55-1.52.7-.08.11-.6.44-1.57.99-.97.55-1.52.89-1.64,1.01-.41.93-2.16,5.14-5.26,12.64,3.06,2.74,9.09,5.31,21.85,10.65,4.71,1.95,74.5,4.97,76.76,4,4.88-2.01,7.4-5.38,7.56-10.12.02-1.24-.13-2.76-.45-4.56s-1.35-3.59-3.1-5.38c-1.74-1.79-3.74-2.96-5.98-3.51l1.29-.37c2.58-.46,4.77.34,6.57,2.41,1.79,2.06,2.9,4.29,3.33,6.69s.52,4.48.28,6.23c-.24,1.76-.65,3.26-1.24,4.5-.59,1.25-1.52,2.38-2.79,3.39-1.27,1.01-2.5,1.83-3.67,2.47s-2.73,1.24-4.67,1.83c-2.86.79-65.73,1.13-76.41-1.86-3.85-1.08-18.73-11.52-21.86-13.34ZM7.77,48.64c-1.86.95-3.26,2.17-4.2,3.67-.95,1.5-1.26,3.16-.94,4.99s1.16,3.21,2.52,4.16c2.33,1.59,5.43,2.04,9.31,1.35,5.58-.99,9.41-2.36,11.48-4.11,1.47-1.12,3.59-2.79,6.36-5.02,2.77-2.23,4.21-3.42,4.33-3.59l1.01-1.54c-1.35-1.71-4.16-2.84-8.42-3.4-4.26-.55-7.6-.62-10-.19s-4.45.91-6.14,1.44c-1.69.54-3.46,1.28-5.32,2.23ZM70.47,10.97c-.31-1.75-1.44-2.46-3.37-2.12-.6.11-1.32.4-2.16.88-.84.48-1.57,1.16-2.18,2.03l-11.73,17.64,1.04-.18c2.4-.43,5.09-1.51,8.06-3.25s5.56-4.01,7.76-6.8c2.19-2.79,3.06-5.53,2.58-8.21Z"/>
      <path class="cls-1" d="M90.96.06c1.71-.3,2.75.63,3.14,2.8s-.19,5.27-1.71,9.3c-1.89,5.19-4.37,9.06-7.44,11.6-1.16.97-2.33,1.63-3.51,1.98,1.87,1.15,5.28,5.23,10.24,12.25,1.71,2.41,3.63,4.51,5.76,6.3,2.13,1.79,4.04,2.53,5.75,2.23,3.51-.62,5.8-2.22,6.86-4.79.61,3.42-1.76,5.91-7.1,7.47-2.09.28-4.15-.36-6.16-1.91-2.01-1.55-3.8-3.47-5.38-5.76-1.57-2.29-3.15-4.54-4.73-6.73-1.58-2.19-3.26-3.81-5.04-4.86-1.78-1.04-3.48-1.42-5.09-1.13-.46.08-.94.21-1.43.4-.32,9.2-.6,15.04-.82,17.53-.23,2.49-.36,4.29-.4,5.39-.04,1.1-.2,2.06-.46,2.87-.26.81-.41,1.29-.46,1.44s-.27.44-.67.87c-.4.43-.64.7-.71.8-2.6.36-4.19-1.09-4.77-4.37s-.23-8.69,1.05-16.25c.52-2.95,1.03-5.75,1.51-8.41,1.3-6.89,2.39-13.13,2.39-15.85-.26-1.48-.61-2.43-1.04-2.85s-.98-3.58-.47-3.67c.97-.17,1.89.75,2.77,2.76.88,2.01,1.05,5.44,1.4,7.43.13-.88,1.59-2.99,4.37-6.34C84.28,4.02,88.33.52,90.96.06ZM71.89,28.64c-1.33,2.43-2.28,6.47-2.85,12.14s-.58,10.05-.03,13.14c.41.98.8,1.43,1.17,1.36.51-.09.99-1.25,1.46-3.47.97-4.74,1.3-10.39.99-16.96-.07-2.03-.19-3.49-.35-4.37s-.29-1.49-.4-1.86ZM92.88,4.43c-.2-1.11-.78-1.58-1.75-1.4-.28.05-.8.24-1.58.57-.78.33-2.14,1.4-4.11,3.23-.76,1.09-2.03,2.61-3.8,4.56-1.77,1.96-3.2,3.59-4.27,4.9-1.08,1.31-1.91,2.72-2.5,4.23-.59,1.51-.82,2.64-.68,3.41s.28,1.32.44,1.67c.99.21,1.99.22,3.01.04,2.12-.38,4.28-1.62,6.48-3.72,3.16-3.13,5.58-6.68,7.25-10.64,1.28-2.99,1.78-5.27,1.5-6.84Z"/>
      <path class="cls-1" d="M108.15,49.46c.38-3.21.95-5.83,1.71-7.87.76-2.04,1.83-3.6,3.21-4.67,1.38-1.08,2.67-1.83,3.88-2.26s2.92-.84,5.14-1.23c.04-.58.08-1.71.11-3.41.03-1.69.08-2.85.14-3.45.06-.61.14-1.54.25-2.79.2-2.08.5-3.69.89-4.84.39-1.14.63-1.86.72-2.16s.16-.52.21-.64c.05-.13.13-.27.24-.44.15-.22.44-.36.85-.44,1.43-.25,2.42,1.14,2.96,4.19l.11.62c.43,2.4,0,5.89-1.29,10.47-1.86,6.65-1.15,11.25-1.33,10.2.88,4.94,2.65,7.17,5.33,6.7.88-.16,2.02-.71,3.42-1.68s2.54-1.52,3.42-1.68l.7-.05c-.57,1.34-1.57,2.49-2.99,3.46-1.42.97-2.63,1.54-3.62,1.71s-1.68.27-2.05.29c-.38.02-.74-.02-1.09-.13-.35-.1-.64-.18-.86-.24-.22-.06-.49-.23-.81-.54-.32-.3-.54-.51-.68-.63-.14-.12-.37-.41-.69-.88-.32-.47-.53-.76-.62-.89s-.33-.49-.69-1.09c-.37-.6-.62-.99-.74-1.15-.11.16-.54.82-1.29,1.98-.75,1.16-1.28,1.94-1.58,2.35-.31.41-.84,1.09-1.6,2.03-.76.95-1.41,1.63-1.96,2.06-1.54,1.23-2.97,1.96-4.29,2.19s-2.32.09-3-.43c-.69-.52-1.15-1.13-1.39-1.82-.24-.69-.47-1.64-.68-2.84ZM112.48,41.48c-1.63,2.76-2.23,5.36-1.8,7.78s1.29,3.52,2.58,3.29c1.8-.32,3.88-2.1,6.23-5.35,2.35-3.25,3.36-5.84,3.01-7.78-.2-1.15-.6-1.95-1.17-2.4-.58-.44-1.42-.57-2.53-.37-2.59.46-4.69,2.07-6.32,4.83ZM126.23,18.55c-.91,1.87-1.49,4.28-1.76,7.2-.27,2.93-.23,5.34.1,7.23.02.09.08.3.18.61l.51-.73c.46-.65,1.01-4.13,1.65-10.43l-.08-.84-.18-1.04c-.02-.14-.1-.48-.22-1.03-.12-.55-.19-.87-.21-.96Z"/>
    </g>
    <g>
      <path class="cls-1" d="M19.54,71.82c-.22-.18-.33-.45-.33-.81,0-.16.03-.44.09-.83.11-.66.16-1.25.16-1.76,0-.39-.02-.69-.05-.91-.03-.22-.11-.43-.23-.63-.06-.1-.09-.16-.09-.21,0-.07.04-.15.12-.23s.18-.14.31-.2c.12-.05.24-.08.35-.08.19,0,.32.07.37.22s.09.38.09.72c0,.18-.05.68-.14,1.49-.1.73-.14,1.26-.14,1.61,0,.25.03.43.09.55.06.12.15.21.28.25.13.05.32.07.56.07.53,0,1.01-.09,1.42-.28.07-.02.12-.04.14-.04.06,0,.11.03.16.1s.07.16.07.27c0,.26-.14.47-.43.62-.38.22-.91.32-1.58.32-.58,0-.98-.09-1.2-.27Z"/>
      <path class="cls-1" d="M23.38,71.41c0-.22.05-.48.14-.79.1-.31.14-.59.14-.85,0-.13-.02-.23-.05-.32-.03-.09-.1-.16-.19-.21-.1-.05-.17-.09-.22-.14-.05-.04-.07-.1-.07-.17,0-.08.04-.18.12-.27s.19-.18.31-.25.26-.1.39-.1c.2,0,.33.07.4.22.07.14.1.33.1.57,0,.26-.04.62-.13,1.07-.05.24-.07.44-.07.58s.03.25.1.33c.07.08.17.15.31.22.05.03.08.07.08.13,0,.07-.03.15-.08.25-.05.1-.14.19-.26.27-.12.08-.27.12-.45.12-.38,0-.58-.22-.58-.66ZM23.54,67.35c-.1-.1-.15-.23-.15-.4,0-.18.07-.33.18-.45s.27-.18.45-.18.32.05.42.14c.1.09.15.23.15.4,0,.19-.06.34-.18.46s-.27.18-.46.18c-.17,0-.31-.06-.41-.15Z"/>
      <path class="cls-1" d="M25.9,72c-.24-.04-.41-.12-.51-.24-.04-.04-.07-.1-.09-.17s-.04-.14-.04-.2c0-.17.06-.31.18-.43.12-.12.31-.27.58-.46l1.2-.83c.16-.13.24-.22.24-.27,0-.13-.18-.2-.54-.2-.22,0-.41.03-.56.08-.15.05-.26.12-.31.21-.04.05-.08.08-.1.1-.02.02-.06.03-.11.03-.1,0-.2-.05-.28-.15-.09-.1-.13-.23-.13-.4,0-.27.15-.46.45-.58.3-.12.68-.18,1.15-.18.31,0,.57.02.78.05.21.03.38.09.51.18.1.06.17.14.23.25.05.11.08.22.08.34,0,.19-.09.38-.28.55s-.48.38-.89.63l-1.01.61c-.06.04-.09.08-.09.13,0,.07.04.1.13.11.16.01.33.02.52.02.49,0,.86-.06,1.13-.19.1-.05.17-.08.22-.08.07,0,.13.04.19.13s.09.19.09.31c0,.27-.15.46-.45.57-.3.11-.72.17-1.28.17-.4,0-.74-.02-1.01-.07Z"/>
      <path class="cls-1" d="M29.65,71.95c-.09-.08-.13-.25-.13-.5s.03-.58.1-1.02c.13-.85.19-1.53.19-2.06,0-.32-.02-.58-.04-.79-.1.05-.17.07-.23.07-.1,0-.15-.1-.15-.31,0-.19.04-.34.13-.45.09-.12.23-.23.43-.33.24-.13.5-.23.77-.3.28-.07.55-.1.81-.1.56,0,1.02.15,1.38.44s.53.69.53,1.18c0,.33-.08.63-.24.91-.16.28-.37.5-.62.67-.25.17-.52.29-.79.34.23.35.44.64.65.85.34.35.69.53,1.04.53.1,0,.18,0,.25-.02h.02c.08,0,.12.08.12.23,0,.2-.06.37-.19.53s-.32.23-.59.23c-.42,0-.81-.24-1.17-.71s-.67-1.02-.93-1.64c-.06-.14-.09-.26-.09-.38,0-.1.03-.19.1-.25.05-.05.12-.08.2-.1s.21-.03.38-.03c.32,0,.58-.09.77-.26.2-.17.3-.4.3-.67s-.11-.5-.32-.65c-.22-.14-.49-.22-.84-.22-.26,0-.54.04-.83.13-.02.39-.06.84-.13,1.34-.09.76-.13,1.32-.13,1.69,0,.23.02.43.06.58s.12.28.23.39c.08.08.13.17.13.27,0,.14-.08.26-.23.36-.15.1-.35.16-.58.16-.14,0-.26-.04-.35-.12Z"/>
      <path class="cls-1" d="M34.66,71.75c-.24-.23-.36-.56-.36-.99,0-.4.1-.78.31-1.13-.1.06-.17.09-.22.09-.07,0-.11-.04-.14-.11-.03-.07-.04-.16-.04-.25,0-.2.08-.38.25-.51.16-.14.38-.26.65-.38.27-.11.58-.17.91-.17.52,0,.92.14,1.2.43.28.29.43.69.43,1.21,0,.4-.08.77-.25,1.1s-.4.59-.71.78c-.3.19-.65.28-1.03.28-.43,0-.76-.11-1-.34ZM36.71,70.89c.2-.19.31-.44.31-.75s-.1-.53-.3-.68c-.2-.15-.45-.22-.75-.22-.21,0-.42.04-.63.13-.22.31-.32.61-.32.9s.09.51.26.67c.17.16.4.24.67.24.31,0,.56-.1.77-.29Z"/>
      <path class="cls-1" d="M38.64,71.87c-.25-.15-.37-.34-.37-.59,0-.1.02-.19.07-.27.05-.08.12-.11.22-.11.05,0,.11.01.17.04.12.07.26.13.43.18s.34.07.52.07c.22,0,.4-.03.56-.09.16-.06.24-.15.24-.25,0-.08-.06-.14-.17-.18-.11-.04-.32-.08-.63-.12-.27-.04-.48-.09-.64-.14-.16-.05-.29-.13-.4-.25-.11-.12-.17-.28-.17-.5,0-.23.06-.45.19-.66.13-.21.32-.38.56-.51s.54-.2.88-.2c.3,0,.57.05.8.15s.35.24.35.41c0,.1-.04.2-.11.29-.07.09-.16.17-.26.22-.1.06-.18.09-.26.09-.03,0-.06,0-.09-.03s-.06-.04-.09-.07c-.18-.15-.41-.23-.7-.23-.18,0-.33.03-.44.08-.11.05-.17.12-.17.21,0,.11.08.19.24.23.16.05.37.09.64.12.38.05.67.14.85.27.19.12.28.32.28.6,0,.23-.07.46-.2.69-.13.23-.32.41-.57.55-.25.14-.53.21-.85.21-.35,0-.65-.07-.9-.22Z"/>
      <path class="cls-1" d="M42.27,71.7c-.25-.26-.38-.63-.38-1.09,0-.41.09-.8.28-1.15s.44-.63.76-.84c.32-.21.66-.31,1.04-.31s.65.09.86.27c.22.18.32.41.32.71,0,.23-.07.45-.22.65-.14.2-.34.36-.58.47-.24.12-.51.18-.8.18-.17,0-.33-.02-.49-.06-.16-.04-.29-.1-.4-.18,0,.28.1.5.28.67s.42.25.71.25c.17,0,.35-.03.54-.09.18-.06.34-.15.47-.26.08-.07.16-.11.23-.11.06,0,.11.02.15.06.04.04.06.09.06.15,0,.13-.11.31-.34.52-.4.38-.88.58-1.43.58-.46,0-.81-.13-1.07-.39ZM44.02,69.84c.14-.09.22-.2.22-.34,0-.11-.05-.2-.14-.27s-.23-.09-.4-.09c-.23,0-.42.06-.58.18-.16.12-.28.28-.35.49.08.05.19.1.32.13.13.03.26.04.4.04.22,0,.4-.04.54-.13Z"/>
      <path class="cls-1" d="M49.31,72.03c-.18-.04-.32-.12-.44-.23-.08-.08-.14-.17-.18-.27-.03-.1-.05-.22-.05-.36,0-.2.02-.41.05-.61.14-.91.21-1.67.21-2.28,0-.26-.02-.52-.05-.76-.11.05-.18.07-.23.07-.09,0-.13-.09-.13-.26s.04-.32.12-.45c.08-.12.21-.23.4-.33.21-.11.48-.21.8-.29.32-.08.64-.12.96-.12.75,0,1.34.22,1.77.67.43.44.64,1.07.64,1.87,0,.63-.13,1.2-.38,1.72s-.63.93-1.12,1.23c-.49.3-1.07.45-1.74.45-.25,0-.46-.02-.63-.07ZM51.33,70.85c.35-.15.63-.38.85-.69.22-.31.33-.7.33-1.16,0-.59-.17-1.04-.5-1.35-.34-.31-.77-.47-1.29-.47-.29,0-.61.04-.95.14-.02.5-.07,1.03-.14,1.57-.08.56-.12,1.06-.12,1.48,0,.29.06.48.17.58.11.1.3.15.57.15.38,0,.75-.08,1.09-.23Z"/>
      <path class="cls-1" d="M54.09,71.7c-.25-.26-.38-.63-.38-1.09,0-.41.09-.8.28-1.15s.44-.63.76-.84c.32-.21.66-.31,1.04-.31s.65.09.86.27c.22.18.32.41.32.71,0,.23-.07.45-.22.65-.14.2-.34.36-.58.47-.24.12-.51.18-.8.18-.17,0-.33-.02-.49-.06-.16-.04-.29-.1-.4-.18,0,.28.1.5.28.67s.42.25.71.25c.17,0,.35-.03.54-.09.18-.06.34-.15.47-.26.08-.07.16-.11.23-.11.06,0,.11.02.15.06.04.04.06.09.06.15,0,.13-.11.31-.34.52-.4.38-.88.58-1.43.58-.46,0-.81-.13-1.07-.39ZM55.83,69.84c.14-.09.22-.2.22-.34,0-.11-.05-.2-.14-.27s-.23-.09-.4-.09c-.23,0-.42.06-.58.18-.16.12-.28.28-.35.49.08.05.19.1.32.13.13.03.26.04.4.04.22,0,.4-.04.54-.13Z"/>
      <path class="cls-1" d="M57.95,71.87c-.25-.15-.37-.34-.37-.59,0-.1.02-.19.07-.27.05-.08.12-.11.22-.11.05,0,.11.01.17.04.12.07.26.13.43.18s.34.07.52.07c.22,0,.4-.03.56-.09.16-.06.24-.15.24-.25,0-.08-.06-.14-.17-.18-.11-.04-.32-.08-.63-.12-.27-.04-.48-.09-.64-.14-.16-.05-.29-.13-.4-.25-.11-.12-.17-.28-.17-.5,0-.23.06-.45.19-.66.13-.21.32-.38.56-.51s.54-.2.88-.2c.3,0,.57.05.8.15s.35.24.35.41c0,.1-.04.2-.11.29-.07.09-.16.17-.26.22-.1.06-.18.09-.26.09-.03,0-.06,0-.09-.03s-.06-.04-.09-.07c-.18-.15-.41-.23-.7-.23-.18,0-.33.03-.44.08-.11.05-.17.12-.17.21,0,.11.08.19.24.23.16.05.37.09.64.12.38.05.67.14.85.27.19.12.28.32.28.6,0,.23-.07.46-.2.69-.13.23-.32.41-.57.55-.25.14-.53.21-.85.21-.35,0-.65-.07-.9-.22Z"/>
      <path class="cls-1" d="M61.43,71.41c0-.22.05-.48.14-.79.1-.31.14-.59.14-.85,0-.13-.02-.23-.05-.32-.03-.09-.1-.16-.19-.21-.1-.05-.17-.09-.22-.14-.05-.04-.07-.1-.07-.17,0-.08.04-.18.12-.27s.19-.18.31-.25.26-.1.39-.1c.2,0,.33.07.4.22.07.14.1.33.1.57,0,.26-.04.62-.13,1.07-.05.24-.07.44-.07.58s.03.25.1.33c.07.08.17.15.31.22.05.03.08.07.08.13,0,.07-.03.15-.08.25-.05.1-.14.19-.26.27-.12.08-.27.12-.45.12-.38,0-.58-.22-.58-.66ZM61.59,67.35c-.1-.1-.15-.23-.15-.4,0-.18.07-.33.18-.45s.27-.18.45-.18.32.05.42.14c.1.09.15.23.15.4,0,.19-.06.34-.18.46s-.27.18-.46.18c-.17,0-.31-.06-.41-.15Z"/>
      <path class="cls-1" d="M63.58,74.19c-.27-.18-.4-.42-.4-.72,0-.22.07-.42.21-.58s.31-.25.53-.25c.13,0,.19.04.19.11,0,.03,0,.08-.02.15-.02.07-.02.12-.02.16,0,.16.09.29.27.37.18.08.42.13.71.13s.55-.04.78-.13.34-.22.34-.39c0-.16-.1-.28-.29-.34-.19-.07-.47-.12-.85-.17-.04,0-.16-.02-.34-.05-.19-.03-.34-.06-.46-.11-.2-.07-.35-.15-.45-.25-.09-.1-.14-.22-.14-.36,0-.28.17-.51.51-.67-.19-.1-.34-.24-.44-.43-.1-.18-.15-.39-.15-.63,0-.3.08-.58.23-.84.16-.26.39-.47.7-.63.31-.16.68-.24,1.12-.24.37,0,.69.06.96.17.27.11.4.3.4.56,0,.09-.02.17-.05.25-.03.08-.09.12-.17.12-.07,0-.17-.02-.31-.06.03.14.05.28.05.42,0,.37-.12.7-.37.97-.25.28-.6.44-1.04.5-.18.01-.31.03-.38.06-.07.03-.11.07-.11.14,0,.06.03.1.09.13.06.02.16.04.29.06.41.04.75.09,1.02.17.26.08.47.19.63.35.15.16.23.38.23.66,0,.33-.1.62-.3.88-.2.25-.47.45-.81.59-.34.14-.71.21-1.1.21-.44,0-.8-.09-1.07-.27ZM65.63,70.21c.16-.15.24-.34.24-.58,0-.12-.02-.25-.05-.38-.17-.05-.35-.07-.54-.07-.32,0-.57.06-.75.18-.18.12-.27.29-.27.5,0,.18.07.32.2.43.13.1.31.16.53.16.27,0,.48-.07.64-.23Z"/>
      <path class="cls-1" d="M67.7,71.86c.16-.64.23-1.15.23-1.56,0-.3-.02-.53-.05-.68-.04-.15-.08-.26-.14-.31-.06-.05-.15-.1-.26-.14-.11-.04-.16-.11-.16-.2,0-.08.03-.18.1-.28s.17-.19.29-.27c.12-.07.26-.11.41-.11.36,0,.54.26.54.77,0,.25-.05.58-.14,1.01h.03c.46-1.19,1.06-1.79,1.83-1.79.31,0,.55.09.72.28.17.19.26.43.26.72,0,.17-.04.39-.13.66-.07.23-.11.43-.11.6,0,.35.16.58.49.69.08.04.13.09.13.16s-.02.16-.06.26-.11.19-.21.27c-.1.08-.23.12-.4.12-.23,0-.42-.08-.55-.25-.13-.17-.2-.39-.2-.66,0-.2.05-.5.15-.88.07-.29.1-.48.1-.57,0-.28-.14-.41-.43-.41-.34,0-.62.17-.86.52-.24.35-.44.77-.59,1.28v.22c0,.23-.06.41-.19.55-.13.14-.29.21-.49.21-.22,0-.31-.07-.29-.22Z"/>
      <path class="cls-1" d="M72.6,71.87c-.25-.15-.37-.34-.37-.59,0-.1.02-.19.07-.27.05-.08.12-.11.22-.11.05,0,.11.01.17.04.12.07.26.13.43.18s.34.07.52.07c.22,0,.4-.03.56-.09.16-.06.24-.15.24-.25,0-.08-.06-.14-.17-.18-.11-.04-.32-.08-.63-.12-.27-.04-.48-.09-.64-.14-.16-.05-.29-.13-.4-.25-.11-.12-.17-.28-.17-.5,0-.23.06-.45.19-.66.13-.21.32-.38.56-.51s.54-.2.88-.2c.3,0,.57.05.8.15s.35.24.35.41c0,.1-.04.2-.11.29-.07.09-.16.17-.26.22-.1.06-.18.09-.26.09-.03,0-.06,0-.09-.03s-.06-.04-.09-.07c-.18-.15-.41-.23-.7-.23-.18,0-.33.03-.44.08-.11.05-.17.12-.17.21,0,.11.08.19.24.23.16.05.37.09.64.12.38.05.67.14.85.27.19.12.28.32.28.6,0,.23-.07.46-.2.69-.13.23-.32.41-.57.55-.25.14-.53.21-.85.21-.35,0-.65-.07-.9-.22Z"/>
    </g>
  </g>
</svg>