<?xml version="1.0" encoding="UTF-8"?>
<svg id="Layer_2" data-name="Layer 2" xmlns="http://www.w3.org/2000/svg" viewBox="0 0 24.96 24.61">
  <defs>
    <style>
      .cls-1 {
        fill: #d5859c;
        stroke-width: 0px;
      }
    </style>
  </defs>
  <g id="Layer_1-2" data-name="Layer 1">
    <path class="cls-1" d="M20.27,4.82c-1.64-.1-3.12-1-3.97-2.41h0c-2.13-3.54-7.4-3.1-8.91.74-.6,1.53-1.92,2.66-3.52,3.03h0C-.16,7.12-1.37,12.27,1.82,14.9c1.27,1.04,1.94,2.65,1.8,4.28-.36,4.12,4.16,6.86,7.65,4.64h0c1.38-.88,3.11-1.03,4.63-.39h0c3.81,1.61,7.81-1.84,6.78-5.84-.41-1.59-.01-3.28,1.06-4.52h0c2.71-3.12.67-8-3.46-8.25ZM12.48,15.22c-1.61,0-2.92-1.31-2.92-2.92s1.31-2.92,2.92-2.92,2.92,1.31,2.92,2.92-1.31,2.92-2.92,2.92Z"/>
  </g>
</svg>